<?xml version="1.0" encoding="utf-8"?>
<!-- Generator: Adobe Illustrator 21.0.2, SVG Export Plug-In . SVG Version: 6.00 Build 0)  -->
<svg version="1.1"
	 id="svg3570" inkscape:version="0.91 r13725" sodipodi:docname="quasar-logo-full.svg" xmlns:cc="http://creativecommons.org/ns#" xmlns:dc="http://purl.org/dc/elements/1.1/" xmlns:inkscape="http://www.inkscape.org/namespaces/inkscape" xmlns:rdf="http://www.w3.org/1999/02/22-rdf-syntax-ns#" xmlns:sodipodi="http://sodipodi.sourceforge.net/DTD/sodipodi-0.dtd" xmlns:svg="http://www.w3.org/2000/svg"
	 xmlns="http://www.w3.org/2000/svg" xmlns:xlink="http://www.w3.org/1999/xlink" x="0px" y="0px" viewBox="0 0 191.1 178.3"
	 style="enable-background:new 0 0 191.1 178.3;" xml:space="preserve">
<style type="text/css">
	.st0{fill:#263238;}
	.st1{fill:#1976D2;}
	.st2{fill:#42A5F5;}
	.st3{fill:#DF4F4F;}
</style>
<sodipodi:namedview  bordercolor="#666666" borderopacity="1.0" fit-margin-bottom="0" fit-margin-left="0" fit-margin-right="0" fit-margin-top="0" id="base" inkscape:current-layer="g4895-4-4" inkscape:cx="-39.753589" inkscape:cy="27.706388" inkscape:document-units="px" inkscape:pageopacity="0.0" inkscape:pageshadow="2" inkscape:window-height="1056" inkscape:window-maximized="1" inkscape:window-width="1920" inkscape:window-x="0" inkscape:window-y="24" inkscape:zoom="1.979899" pagecolor="#ffffff" showgrid="false">
	</sodipodi:namedview>
<path id="path3428" class="st0" d="M19.9,174.9c-0.3,0-0.7,0-1,0.1c-0.4,0-0.7,0-1.1,0h-7.5c-6.8,0-10.3-2.3-10.3-6.8v-10.8
	c0-4.4,3.4-6.6,10.1-6.6h7.8c6.7,0,10.1,2.2,10.1,6.6v10.8c0,2.7-1.2,4.6-3.6,5.6l2.5,1.7c0.7,0.4,1.1,0.9,1.1,1.4s-0.2,0.8-0.6,1.1
	c-0.4,0.3-0.9,0.4-1.5,0.4c-0.2,0-0.4,0-0.6-0.1c-0.2,0-0.5-0.2-0.8-0.4L19.9,174.9L19.9,174.9z M24.2,157.5c0-2.5-2.1-3.8-6.4-3.8
	h-7.7c-4.2,0-6.4,1.3-6.4,3.8v10.7c0,2.6,2.2,4,6.6,4h7.1c4.4,0,6.6-1.3,6.6-4L24.2,157.5L24.2,157.5z"/>
<path id="path3430" class="st0" d="M47.6,175c-6,0-9-1.8-9-5.5v-10.2c0-1,0.6-1.5,1.9-1.5c1.2,0,1.9,0.5,1.9,1.5v10.2
	c0,1.8,1.7,2.7,5.2,2.7h6.7c3.5,0,5.2-0.9,5.2-2.7v-10.2c0-1,0.6-1.5,1.9-1.5c1.3,0,1.9,0.5,1.9,1.5v10.2c0,3.7-3,5.5-9,5.5H47.6z"
	/>
<path id="path3432" class="st0" d="M80.2,175c-5,0-7.5-1.6-7.5-4.7v-2c0-3.1,2.5-4.6,7.5-4.6h14.9v-0.5c0-1.6-1.4-2.4-4.3-2.4h-4.9
	c-1.2,0-1.8-0.5-1.8-1.4c0-0.9,0.6-1.4,1.8-1.4h4.9c5.3,0,7.9,1.7,7.9,5.2v6.9c0,3.3-2.5,4.9-7.6,4.9H80.2L80.2,175z M90.9,172.3
	c2.8,0,4.2-0.8,4.2-2.3v-3.8H80.5c-2.7,0-4.1,0.7-4.1,2.1v1.8c0,1.4,1.4,2.2,4.1,2.2L90.9,172.3L90.9,172.3z"/>
<path id="path3434" class="st0" d="M131.8,171.1c0,2.6-2.7,3.9-8,3.9h-13.7c-1.2,0-1.8-0.5-1.8-1.4c0-0.9,0.6-1.4,1.8-1.4h13.7
	c2.9,0,4.3-0.4,4.3-1.2v-2c0-0.8-1.4-1.2-4.3-1.2h-7.2c-5.3,0-8-1.3-8-3.8v-1.6c0-3,2.7-4.5,8.2-4.5h4.8c1.2,0,1.8,0.5,1.8,1.4
	c0,0.5-0.2,0.8-0.5,1.1c-0.3,0.2-0.7,0.3-1.3,0.3h-4.8c-3.1,0-4.6,0.6-4.6,1.7v1.5c0,1,1.5,1.4,4.6,1.4h7.2c5.2,0,7.8,1.2,7.8,3.6
	V171.1L131.8,171.1z"/>
<path id="path3436" class="st0" d="M148.5,175c-5,0-7.5-1.6-7.5-4.7v-2c0-3.1,2.5-4.6,7.5-4.6h14.9v-0.5c0-1.6-1.4-2.4-4.3-2.4h-4.9
	c-1.2,0-1.8-0.5-1.8-1.4c0-0.9,0.6-1.4,1.8-1.4h4.9c5.3,0,7.9,1.7,7.9,5.2v6.9c0,3.3-2.5,4.9-7.6,4.9H148.5L148.5,175z M159.2,172.3
	c2.8,0,4.2-0.8,4.2-2.3v-3.8h-14.6c-2.7,0-4.1,0.7-4.1,2.1v1.8c0,1.4,1.4,2.2,4.1,2.2L159.2,172.3L159.2,172.3z"/>
<path id="path3438" class="st0" d="M177.6,163.6c0-3.7,3-5.6,9-5.6h2.7c1.2,0,1.8,0.5,1.8,1.4c0,1-0.6,1.4-1.8,1.4h-2.8
	c-3.5,0-5.2,0.9-5.2,2.6v10.2c0,1-0.6,1.5-1.9,1.5c-1.2,0-1.9-0.5-1.9-1.5V163.6L177.6,163.6z"/>
<g>
	<g>
		
			<path id="path8862-5-5-9-1-9-2-7" inkscape:connector-curvature="0" inkscape:transform-center-x="-514.04855" inkscape:transform-center-y="-444.04649" class="st1" d="
			M139.5,36.5c-2.2-3.9-5-7.4-8.1-10.6l-11.9,6.9c-3.7-3.2-7.9-5.6-12.4-7.2c-4.1,4.1-7.3,8.7-9.6,13.7c13.2-0.9,26.9,3.9,39.6,13.8
			l7.5-4.3C143.4,44.5,141.7,40.4,139.5,36.5L139.5,36.5z"/>
		
			<path id="path8864-4-8-1-2-7-3-1" inkscape:connector-curvature="0" inkscape:transform-center-x="-689.63727" inkscape:transform-center-y="265.80217" class="st2" d="
			M139.5,89.3c2.2-3.9,3.9-8,5.1-12.3l-11.9-6.9c0.9-4.8,0.9-9.7,0-14.4c-5.6-1.5-11.2-2-16.7-1.5c7.4,11,10.1,25.3,7.8,41.2
			l7.5,4.3C134.5,96.7,137.2,93.2,139.5,89.3L139.5,89.3z"/>
		
			<path id="path8866-7-5-5-0-3-5-6" inkscape:connector-curvature="0" inkscape:transform-center-x="-117.49007" inkscape:transform-center-y="639.34029" class="st1" d="
			M93.8,115.7c4.5,0,8.9-0.6,13.2-1.7v-13.7c4.6-1.6,8.8-4.1,12.4-7.2c-1.5-5.6-3.9-10.7-7.1-15.2c-5.8,11.9-16.8,21.4-31.8,27.4
			v8.6C84.9,115.1,89.3,115.7,93.8,115.7z"/>
		
			<path id="path8868-6-7-4-7-5-7-1" inkscape:connector-curvature="0" inkscape:transform-center-x="514.04857" inkscape:transform-center-y="444.04652" class="st2" d="
			M48.1,89.3c2.2,3.9,5,7.4,8.1,10.6L68.1,93c3.7,3.2,7.9,5.6,12.4,7.2c4.1-4.1,7.3-8.7,9.6-13.7c-13.2,0.9-26.9-3.9-39.6-13.8
			L43,77C44.2,81.3,45.9,85.4,48.1,89.3L48.1,89.3z"/>
		
			<path id="path8870-5-3-9-3-0-0-9" inkscape:connector-curvature="0" inkscape:transform-center-x="689.63729" inkscape:transform-center-y="-265.80221" class="st1" d="
			M48.1,36.5c-2.2,3.9-3.9,8-5.1,12.3l11.9,6.9c-0.9,4.8-0.9,9.7,0,14.4c5.6,1.5,11.2,2,16.7,1.5c-7.4-11-10.1-25.3-7.8-41.2
			L56.2,26C53.1,29.1,50.3,32.7,48.1,36.5z"/>
		
			<path id="path8872-6-3-2-1-4-2-1" inkscape:connector-curvature="0" inkscape:transform-center-x="117.49005" inkscape:transform-center-y="-639.34032" class="st2" d="
			M93.8,10.2c-4.5,0-8.9,0.6-13.2,1.7v13.7c-4.6,1.6-8.8,4.1-12.4,7.2c1.5,5.6,3.9,10.7,7.1,15.2C81.1,36,92,26.6,107,20.6v-8.6
			C102.7,10.8,98.2,10.2,93.8,10.2L93.8,10.2z"/>
	</g>
	<path class="st3" d="M76.8,46.2l29.2,30.9c0,0,1,0.7,1.8-0.1c0.8-0.8,0.2-1.6,0.2-1.6L76.8,46.2L76.8,46.2z M86,49.1l22.2,23.9
		c0,0,1,0.7,1.8-0.1c0.8-0.8,0.2-1.6,0.2-1.6L86,49.1z M79.5,55.4l22.2,23.9c0,0,1,0.7,1.8-0.1c0.8-0.8,0.2-1.6,0.2-1.6L79.5,55.4z
		 M93.8,51.7l15.5,16.7c0,0,0.7,0.5,1.2-0.1c0.5-0.6,0.1-1.1,0.1-1.1L93.8,51.7L93.8,51.7z M81.6,62.6l15.5,16.7
		c0,0,0.7,0.5,1.2-0.1c0.5-0.6,0.1-1.1,0.1-1.1L81.6,62.6z M101.8,55.3l7,7.6c0,0,0.3,0.2,0.6,0c0.3-0.3,0.1-0.5,0.1-0.5L101.8,55.3
		z M85.5,70.3l7,7.6c0,0,0.3,0.2,0.6,0c0.3-0.3,0.1-0.5,0.1-0.5L85.5,70.3z"/>
</g>
</svg>
