<?xml version="1.0" encoding="utf-8"?>
<!-- Generator: Adobe Illustrator 21.0.2, SVG Export Plug-In . SVG Version: 6.00 Build 0)  -->
<svg version="1.1"
	 id="svg3742" inkscape:version="0.91 r13725" sodipodi:docname="quasar-logo-full-inline.svg" xmlns:cc="http://creativecommons.org/ns#" xmlns:dc="http://purl.org/dc/elements/1.1/" xmlns:inkscape="http://www.inkscape.org/namespaces/inkscape" xmlns:rdf="http://www.w3.org/1999/02/22-rdf-syntax-ns#" xmlns:sodipodi="http://sodipodi.sourceforge.net/DTD/sodipodi-0.dtd" xmlns:svg="http://www.w3.org/2000/svg"
	 xmlns="http://www.w3.org/2000/svg" xmlns:xlink="http://www.w3.org/1999/xlink" x="0px" y="0px" viewBox="0 0 381.6 125.8"
	 style="enable-background:new 0 0 381.6 125.8;" xml:space="preserve">
<style type="text/css">
	.st0{fill:#263238;}
	.st1{fill:#1976D2;}
	.st2{fill:#42A5F5;}
	.st3{fill:#DF4F4F;}
</style>
<sodipodi:namedview  bordercolor="#666666" borderopacity="1.0" fit-margin-bottom="0" fit-margin-left="0" fit-margin-right="0" fit-margin-top="0" id="base" inkscape:current-layer="g5519-9-0" inkscape:cx="-23.214335" inkscape:cy="-11.279441" inkscape:document-units="px" inkscape:pageopacity="0.0" inkscape:pageshadow="2" inkscape:window-height="1056" inkscape:window-maximized="1" inkscape:window-width="1920" inkscape:window-x="0" inkscape:window-y="24" inkscape:zoom="0.98994949" pagecolor="#ffffff" showgrid="false">
	</sodipodi:namedview>
<path id="path3441" class="st0" d="M187.9,74.8c-0.4,0-0.8,0.1-1.2,0.1c-0.4,0-0.8,0-1.3,0h-8.6c-7.9,0-11.8-2.6-11.8-7.8V54.7
	c0-5.1,3.9-7.6,11.6-7.6h9c7.7,0,11.6,2.5,11.6,7.6v12.4c0,3.1-1.4,5.2-4.1,6.5l2.9,2c0.8,0.5,1.2,1,1.2,1.6c0,0.5-0.2,0.9-0.6,1.2
	c-0.4,0.3-1,0.4-1.7,0.4c-0.2,0-0.4,0-0.7-0.1c-0.3-0.1-0.6-0.2-1-0.4L187.9,74.8L187.9,74.8z M192.8,54.8c0-2.9-2.4-4.4-7.3-4.4
	h-8.8c-4.9,0-7.3,1.5-7.3,4.4v12.3c0,3,2.5,4.5,7.6,4.5h8.2c5.1,0,7.6-1.5,7.6-4.5L192.8,54.8L192.8,54.8z"/>
<path id="path3443" class="st0" d="M219.2,74.9c-6.9,0-10.4-2.1-10.4-6.4V56.9c0-1.1,0.7-1.7,2.1-1.7c1.4,0,2.1,0.6,2.1,1.7v11.7
	c0,2,2,3.1,6,3.1h7.6c4,0,6-1,6-3.1V56.9c0-1.1,0.7-1.7,2.1-1.7c1.4,0,2.2,0.6,2.2,1.7v11.7c0,4.2-3.5,6.4-10.4,6.4H219.2
	L219.2,74.9z"/>
<path id="path3445" class="st0" d="M256,74.9c-5.7,0-8.6-1.8-8.6-5.3v-2.3c0-3.5,2.9-5.3,8.6-5.3h17.1v-0.6c0-1.9-1.6-2.8-4.9-2.8
	h-5.7c-1.3,0-2-0.5-2-1.6c0-1.1,0.7-1.6,2-1.6h5.7c6.1,0,9.1,2,9.1,6v7.9c0,3.8-2.9,5.7-8.8,5.7L256,74.9L256,74.9z M268.3,71.8
	c3.2,0,4.8-0.9,4.8-2.7v-4.4h-16.8c-3.1,0-4.7,0.8-4.7,2.5v2.1c0,1.7,1.6,2.5,4.7,2.5H268.3z"/>
<path id="path3447" class="st0" d="M314.7,70.4c0,3-3.1,4.5-9.2,4.5h-15.7c-1.3,0-2-0.5-2-1.6c0-1,0.7-1.6,2-1.6h15.7
	c3.3,0,4.9-0.5,4.9-1.4v-2.3c0-0.9-1.6-1.4-4.9-1.4h-8.3c-6.1,0-9.2-1.5-9.2-4.4v-1.9c0-3.4,3.1-5.1,9.4-5.1h5.5
	c1.4,0,2.1,0.5,2.1,1.6c0,0.5-0.2,0.9-0.6,1.2c-0.3,0.2-0.8,0.4-1.5,0.4h-5.5c-3.5,0-5.3,0.7-5.3,2v1.8c0,1.1,1.7,1.6,5.2,1.6h8.3
	c6,0,8.9,1.4,8.9,4.1L314.7,70.4L314.7,70.4z"/>
<path id="path3449" class="st0" d="M333.3,74.9c-5.7,0-8.6-1.8-8.6-5.3v-2.3c0-3.5,2.9-5.3,8.6-5.3h17.1v-0.6c0-1.9-1.6-2.8-4.9-2.8
	h-5.7c-1.3,0-2-0.5-2-1.6c0-1.1,0.7-1.6,2-1.6h5.7c6.1,0,9.1,2,9.1,6v7.9c0,3.8-2.9,5.7-8.8,5.7L333.3,74.9L333.3,74.9z M345.6,71.8
	c3.2,0,4.8-0.9,4.8-2.7v-4.4h-16.8c-3.1,0-4.7,0.8-4.7,2.5v2.1c0,1.7,1.6,2.5,4.7,2.5H345.6z"/>
<path id="path3451" class="st0" d="M366.1,61.8c0-4.3,3.5-6.4,10.4-6.4h3.1c1.4,0,2.1,0.5,2.1,1.6c0,1.1-0.7,1.6-2.1,1.6h-3.3
	c-4,0-6,1-6,3v11.7c0,1.1-0.7,1.7-2.1,1.7c-1.4,0-2.1-0.6-2.1-1.7V61.8z"/>
<g>
	
		<path id="path8862-5-5-9-1-9-2-7" inkscape:connector-curvature="0" inkscape:transform-center-x="-514.04855" inkscape:transform-center-y="-444.04649" class="st1" d="
		M113.5,36.5c-2.2-3.9-5-7.4-8.1-10.6l-11.9,6.9c-3.7-3.2-7.9-5.6-12.4-7.2c-4.1,4.1-7.3,8.7-9.6,13.7c13.2-0.9,26.9,3.9,39.6,13.8
		l7.5-4.3C117.4,44.5,115.7,40.4,113.5,36.5L113.5,36.5z"/>
	
		<path id="path8864-4-8-1-2-7-3-1" inkscape:connector-curvature="0" inkscape:transform-center-x="-689.63727" inkscape:transform-center-y="265.80217" class="st2" d="
		M113.5,89.3c2.2-3.9,3.9-8,5.1-12.3l-11.9-6.9c0.9-4.8,0.9-9.7,0-14.4c-5.6-1.5-11.2-2-16.7-1.5c7.4,11,10.1,25.3,7.8,41.2l7.5,4.3
		C108.5,96.7,111.2,93.2,113.5,89.3L113.5,89.3z"/>
	
		<path id="path8866-7-5-5-0-3-5-6" inkscape:connector-curvature="0" inkscape:transform-center-x="-117.49007" inkscape:transform-center-y="639.34029" class="st1" d="
		M67.8,115.7c4.5,0,8.9-0.6,13.2-1.7v-13.7c4.6-1.6,8.8-4.1,12.4-7.2c-1.5-5.6-3.9-10.7-7.1-15.2c-5.8,11.9-16.8,21.4-31.8,27.4v8.6
		C58.9,115.1,63.3,115.7,67.8,115.7z"/>
	
		<path id="path8868-6-7-4-7-5-7-1" inkscape:connector-curvature="0" inkscape:transform-center-x="514.04857" inkscape:transform-center-y="444.04652" class="st2" d="
		M22.1,89.3c2.2,3.9,5,7.4,8.1,10.6L42.1,93c3.7,3.2,7.9,5.6,12.4,7.2c4.1-4.1,7.3-8.7,9.6-13.7c-13.2,0.9-26.9-3.9-39.6-13.8L17,77
		C18.2,81.3,19.9,85.4,22.1,89.3L22.1,89.3z"/>
	
		<path id="path8870-5-3-9-3-0-0-9" inkscape:connector-curvature="0" inkscape:transform-center-x="689.63729" inkscape:transform-center-y="-265.80221" class="st1" d="
		M22.1,36.5c-2.2,3.9-3.9,8-5.1,12.3l11.9,6.9c-0.9,4.8-0.9,9.7,0,14.4c5.6,1.5,11.2,2,16.7,1.5c-7.4-11-10.1-25.3-7.8-41.2L30.2,26
		C27.1,29.1,24.3,32.7,22.1,36.5z"/>
	
		<path id="path8872-6-3-2-1-4-2-1" inkscape:connector-curvature="0" inkscape:transform-center-x="117.49005" inkscape:transform-center-y="-639.34032" class="st2" d="
		M67.8,10.2c-4.5,0-8.9,0.6-13.2,1.7v13.7c-4.6,1.6-8.8,4.1-12.4,7.2c1.5,5.6,3.9,10.7,7.1,15.2C55.1,36,66,26.6,81,20.6v-8.6
		C76.7,10.8,72.2,10.2,67.8,10.2L67.8,10.2z"/>
</g>
<path class="st3" d="M50.8,46.2l29.2,30.9c0,0,1,0.7,1.8-0.1c0.8-0.8,0.2-1.6,0.2-1.6L50.8,46.2L50.8,46.2z M60,49.1l22.2,23.9
	c0,0,1,0.7,1.8-0.1c0.8-0.8,0.2-1.6,0.2-1.6L60,49.1z M53.5,55.4l22.2,23.9c0,0,1,0.7,1.8-0.1c0.8-0.8,0.2-1.6,0.2-1.6L53.5,55.4z
	 M67.8,51.7l15.5,16.7c0,0,0.7,0.5,1.2-0.1c0.5-0.6,0.1-1.1,0.1-1.1L67.8,51.7L67.8,51.7z M55.6,62.6l15.5,16.7c0,0,0.7,0.5,1.2-0.1
	c0.5-0.6,0.1-1.1,0.1-1.1L55.6,62.6z M75.8,55.3l7,7.6c0,0,0.3,0.2,0.6,0c0.3-0.3,0.1-0.5,0.1-0.5L75.8,55.3z M59.5,70.3l7,7.6
	c0,0,0.3,0.2,0.6,0c0.3-0.3,0.1-0.5,0.1-0.5L59.5,70.3z"/>
</svg>
